HIERARCHY
ROOT reference
{
  OFFSET 0 0 0
  CHANNELS 6 Xposition Yposition Zposition Zrotation Xrotation Yrotation
  JOINT Hips
  {
    OFFSET 8.5582 81.7242 64.3883
    CHANNELS 6 Xposition Yposition Zposition Zrotation Xrotation Yrotation
    JOINT Spine
    {
      OFFSET 0 8.25043 0
      CHANNELS 6 Xposition Yposition Zposition Zrotation Xrotation Yrotation
      JOINT Spine1
      {
        OFFSET 0 26.9735 0
        CHANNELS 6 Xposition Yposition Zposition Zrotation Xrotation Yrotation
        JOINT Neck
        {
          OFFSET 0 26.8627 2.44206
          CHANNELS 6 Xposition Yposition Zposition Zrotation Xrotation Yrotation
          JOINT Head
          {
            OFFSET 0 14.0861 -2.0123
            CHANNELS 6 Xposition Yposition Zposition Zrotation Xrotation Yrotation
            End Site
            {
              OFFSET 0 25.1537 0
            }
          }
        }
        JOINT LeftShoulder
        {
          OFFSET 4.03461 23.8974 -0.31355
          CHANNELS 6 Xposition Yposition Zposition Zrotation Xrotation Yrotation
          JOINT LeftArm
          {
            OFFSET 14.6104 0 0
            CHANNELS 6 Xposition Yposition Zposition Zrotation Xrotation Yrotation
            JOINT LeftForeArm
            {
              OFFSET 28.8903 0 0
              CHANNELS 6 Xposition Yposition Zposition Zrotation Xrotation Yrotation
              JOINT LeftHand
              {
                OFFSET 28.8168 0 0
                CHANNELS 6 Xposition Yposition Zposition Zrotation Xrotation Yrotation
                End Site
                {
                  OFFSET 15.0922 0 0
                }
              }
            }
          }
        }
        JOINT RightShoulder
        {
          OFFSET -4.01401 23.8974 -0.31355
          CHANNELS 6 Xposition Yposition Zposition Zrotation Xrotation Yrotation
          JOINT RightArm
          {
            OFFSET -14.6104 0 0
            CHANNELS 6 Xposition Yposition Zposition Zrotation Xrotation Yrotation
            JOINT RightForeArm
            {
              OFFSET -28.8903 0 0
              CHANNELS 6 Xposition Yposition Zposition Zrotation Xrotation Yrotation
              JOINT RightHand
              {
                OFFSET -28.8168 0 0
                CHANNELS 6 Xposition Yposition Zposition Zrotation Xrotation Yrotation
                End Site
                {
                  OFFSET -15.0922 0 0
                }
              }
            }
          }
        }
      }
    }
    JOINT LeftUpLeg
    {
      OFFSET 10.0615 0 0
      CHANNELS 6 Xposition Yposition Zposition Zrotation Xrotation Yrotation
      JOINT LeftLeg
      {
        OFFSET 0 -36.0896 0
        CHANNELS 6 Xposition Yposition Zposition Zrotation Xrotation Yrotation
        JOINT LeftFoot
        {
          OFFSET 0 -47.1136 0
          CHANNELS 6 Xposition Yposition Zposition Zrotation Xrotation Yrotation
          JOINT LeftToeBase
          {
            OFFSET 0 -6.53997 15.0922
            CHANNELS 6 Xposition Yposition Zposition Zrotation Xrotation Yrotation
            End Site
            {
              OFFSET 0 0 4.0246
            }
          }
        }
      }
    }
    JOINT RightUpLeg
    {
      OFFSET -10.0615 0 0
      CHANNELS 6 Xposition Yposition Zposition Zrotation Xrotation Yrotation
      JOINT RightLeg
      {
        OFFSET 0 -36.0896 0
        CHANNELS 6 Xposition Yposition Zposition Zrotation Xrotation Yrotation
        JOINT RightFoot
        {
          OFFSET 0 -47.1136 0
          CHANNELS 6 Xposition Yposition Zposition Zrotation Xrotation Yrotation
          JOINT RightToeBase
          {
            OFFSET 0 -6.53997 15.0922
            CHANNELS 6 Xposition Yposition Zposition Zrotation Xrotation Yrotation
            End Site
            {
              OFFSET 0 0 4.0246
            }
          }
        }
      }
    }
  }
}
MOTION
Frames:	7
Frame Time:	0.004
0 0 0 0 0 -0 -6.85389 89.6458 -151.298 -14.7005 -12.0838 -0.124799 3.55271e-015 8.25043 -2.84217e-014 12.9332 33.7834 -15.7148 0 26.9735 0 -16.4051 15.4107 -9.53802 0 26.8627 2.44206 5.70092 14.0332 20.9666 -3.55271e-015 14.0861 -2.0123 -16.4966 12.9276 21.3632 4.03461 23.8974 -0.31355 -1.09959 11.6836 -8.76337 14.6104 -1.42109e-014 2.84217e-014 -30.4365 28.5215 -39.1757 28.8903 -1.42109e-014 0 10.1127 -7.33498 -10.7141 28.8168 0 0 7.92842 -6.1769 3.10427 -4.01401 23.8974 -0.31355 -3.89603 22.6312 2.78657 -14.6104 7.10543e-015 0 50.0165 47.3506 2.80733 -28.8903 -1.42109e-014 -2.84217e-014 -23.6271 -39.1112 108.871 -28.8168 -1.42109e-014 -7.10543e-015 -5.1612 -7.61451 -8.70771 10.0615 1.42109e-014 0 19.5241 10.725 5.99926 0 -36.0896 0 -6.54523 6.91997 -19.9455 0 -47.1136 0 4.5707 -5.20805 22.8401 0 -6.53997 15.0922 -2.48481e-017 0 -0 -10.0615 0 -2.84217e-014 -13.7744 -58.8655 -19.1551 -7.10543e-015 -36.0896 7.10543e-015 161.703 56.6695 -140.644 3.10862e-015 -47.1136 0 1.97414 3.45988 -56.0741 0 -6.53997 15.0922 3.18055e-015 -6.36111e-015 -0 
0 0 0 0 0 -0 -6.79557 89.6985 -150.87 -14.6906 -12.2166 0.121958 -3.55271e-015 8.25043 0 13.1807 33.7516 -15.8321 7.10543e-015 26.9735 0 -16.1881 15.4503 -9.60755 0 26.8627 2.44206 5.70027 14.0825 20.8619 7.10543e-015 14.0861 -2.0123 -16.4144 13.0168 21.2705 4.03461 23.8974 -0.31355 -1.14189 11.79 -8.81617 14.6104 0 0 -29.9962 29.1992 -39.4614 28.8903 1.42109e-014 -3.55271e-015 10.2863 -7.7731 -10.9663 28.8168 0 -3.55271e-015 8.34523 -6.56711 3.08588 -4.01401 23.8974 -0.31355 -3.97832 22.4316 2.96234 -14.6104 -1.42109e-014 0 49.7652 47.0679 2.95108 -28.8903 -1.42109e-014 0 -23.1375 -38.7377 109.352 -28.8168 0 0 -5.36664 -7.56517 -9.02183 10.0615 0 0 19.5388 10.7898 6.75797 0 -36.0896 -2.84217e-014 -6.42769 7.41723 -20.8827 -3.55271e-015 -47.1136 2.84217e-014 4.7271 -5.28132 22.8652 7.10543e-015 -6.53997 15.0922 9.93923e-017 -9.93923e-017 1.59028e-015 -10.0615 1.42109e-014 0 -14.2107 -59.3689 -19.3119 0 -36.0896 7.10543e-015 160.57 57.6896 -140.693 -1.77636e-015 -47.1136 -2.84217e-014 1.97414 3.45988 -56.0741 0 -6.53997 15.0922 3.18055e-015 0 -1.59028e-015 
0 0 0 0 0 -0 -6.76619 89.7582 -150.441 -14.6594 -12.3284 0.319079 3.55271e-015 8.25043 0 13.3498 33.8267 -15.8285 0 26.9735 0 -15.9018 15.2951 -9.60407 0 26.8627 2.44206 5.69698 14.2315 20.6915 3.55271e-015 14.0861 -2.0123 -16.2894 13.0847 21.1115 4.03461 23.8974 -0.31355 -1.15431 11.8187 -8.9912 14.6104 2.84217e-014 0 -30.0474 29.5479 -39.5789 28.8903 0 0 10.3748 -7.87844 -11.1473 28.8168 0 0 8.66486 -6.64635 2.99019 -4.01401 23.8974 -0.31355 -3.99187 22.3739 2.87246 -14.6104 1.42109e-014 0 49.5189 47.5487 3.13931 -28.8903 -1.42109e-014 -2.84217e-014 -23.4069 -39.0786 109.183 -28.8168 1.42109e-014 0 -5.90236 -7.6237 -9.36673 10.0615 1.42109e-014 0 19.5316 10.9069 7.00497 0 -36.0896 2.84217e-014 -6.36715 7.75983 -21.3936 0 -47.1136 0 4.79742 -5.28757 23.0575 0 -6.53997 15.0922 -1.36664e-016 9.93923e-017 3.18055e-015 -10.0615 1.42109e-014 -2.84217e-014 -14.707 -59.8103 -19.0369 0 -36.0896 7.10543e-015 158.716 58.4597 -138.144 -1.77636e-015 -47.1136 0 1.97414 3.45988 -56.0741 0 -6.53997 15.0922 2.64834e-031 -9.54166e-015 1.59028e-015 
0 0 0 0 0 -0 -6.72998 89.8104 -150.003 -14.6189 -12.4886 0.508243 0 8.25043 2.84217e-014 13.4653 33.7862 -15.8631 7.10543e-015 26.9735 2.84217e-014 -15.6977 15.4363 -9.61649 -1.42109e-014 26.8627 2.44206 5.74269 14.1566 20.6005 0 14.0861 -2.0123 -16.1714 13.2883 21.0428 4.03461 23.8974 -0.31355 -1.13246 11.8238 -9.0548 14.6104 2.84217e-014 0 -30.577 29.125 -39.6208 28.8903 1.42109e-014 0 10.307 -7.51067 -11.1814 28.8168 1.42109e-014 0 8.76531 -6.3176 2.47758 -4.01401 23.8974 -0.31355 -3.93958 22.108 3.00717 -14.6104 -1.42109e-014 0 49.2375 47.4184 3.31758 -28.8903 0 0 -23.1762 -38.9369 109.375 -28.8168 1.42109e-014 3.55271e-015 -5.78674 -7.6827 -9.53469 10.0615 0 2.84217e-014 19.5077 11.0512 7.39852 0 -36.0896 0 -6.26949 8.17744 -22.1151 0 -47.1136 -2.84217e-014 4.92573 -5.31511 23.3213 -7.10543e-015 -6.53997 15.0922 4.77549e-017 2.48481e-017 1.59028e-015 -10.0615 0 2.84217e-014 -14.8504 -60.2049 -18.9686 0 -36.0896 0 157.587 59.5795 -137.483 2.66454e-015 -47.1136 0 1.97414 3.45988 -56.0741 0 -6.53997 15.0922 3.18055e-015 0 4.77083e-015 
0 0 0 0 0 -0 -6.6992 89.8513 -149.577 -14.5649 -12.5897 0.70793 0 8.25043 1.42109e-014 13.5439 33.7646 -15.8556 0 26.9735 0 -15.4104 15.4549 -9.62467 0 26.8627 2.44206 5.75934 14.1856 20.4619 -3.55271e-015 14.0861 -2.0123 -16.0461 13.389 20.9149 4.03461 23.8974 -0.31355 -1.1469 11.7895 -9.13939 14.6104 2.84217e-014 0 -30.8217 29.2284 -39.717 28.8903 0 0 10.4305 -7.34332 -11.2898 28.8168 1.42109e-014 0 8.73737 -6.15219 2.1643 -4.01401 23.8974 -0.31355 -3.92661 21.8944 3.08028 -14.6104 0 0 48.9514 47.2972 3.48831 -28.8903 0 0 -23.0189 -38.6953 109.53 -28.8168 0 -3.55271e-015 -5.77907 -7.52124 -9.58461 10.0615 0 0 19.46 11.1247 7.58298 0 -36.0896 0 -6.17835 8.56777 -22.5855 0 -47.1136 2.84217e-014 5.06735 -5.35716 23.5774 0 -6.53997 15.0922 6.21202e-017 9.93923e-017 1.59028e-015 -10.0615 0 2.84217e-014 -15.062 -60.6077 -18.8837 0 -36.0896 7.10543e-015 156.301 60.6274 -136.311 -1.77636e-015 -47.1136 0 1.97414 3.45988 -56.0741 0 -6.53997 15.0922 9.54166e-015 0 9.54166e-015 
0 0 0 0 0 -0 -6.66674 89.8831 -149.133 -14.4998 -12.7379 0.89152 3.55271e-015 8.25043 -1.42109e-014 13.6049 33.7503 -15.8391 0 26.9735 0 -15.1374 15.5147 -9.62087 0 26.8627 2.44206 5.80592 14.1944 20.325 0 14.0861 -2.0123 -15.9639 13.5881 20.8004 4.03461 23.8974 -0.31355 -1.19387 11.8152 -9.15717 14.6104 1.42109e-014 0 -30.2791 30.0613 -40.1051 28.8903 1.42109e-014 -3.55271e-015 10.5918 -7.82823 -11.5009 28.8168 1.42109e-014 -3.55271e-015 9.19635 -6.58959 2.22015 -4.01401 23.8974 -0.31355 -3.92241 21.7321 3.15445 -14.6104 0 0 48.6568 47.6413 3.73429 -28.8903 1.42109e-014 -2.84217e-014 -23.3954 -39.1041 109.139 -28.8168 1.42109e-014 1.06581e-014 -5.35886 -7.73531 -9.63291 10.0615 0 1.42109e-014 19.3884 11.2251 7.7392 0 -36.0896 0 -6.05679 9.02267 -23.1017 -3.55271e-015 -47.1136 0 5.05658 -5.4863 23.9232 0 -6.53997 15.0922 -9.93923e-017 0 -0 -10.0615 0 1.42109e-014 -15.1828 -60.9226 -18.7743 7.10543e-015 -36.0896 7.10543e-015 155.102 61.8016 -135.616 -8.88178e-016 -47.1136 0 1.97414 3.45988 -56.0741 0 -6.53997 15.0922 3.18055e-015 0 6.36111e-015 
0 0 0 0 0 -0 -6.63194 89.9084 -148.695 -14.425 -12.8302 1.07543 0 8.25043 -1.42109e-014 13.6365 33.677 -15.7896 7.10543e-015 26.9735 0 -14.827 15.571 -9.60681 -1.42109e-014 26.8627 2.44206 5.67456 14.1799 20.1856 -3.55271e-015 14.0861 -2.0123 -15.6714 13.7466 20.6824 4.03461 23.8974 -0.31355 -1.29708 11.8087 -9.1887 14.6104 -1.42109e-014 0 -30.2891 30.2564 -40.3166 28.8903 0 0 10.6402 -7.80697 -11.62 28.8168 0 3.55271e-015 9.35462 -6.56757 1.99409 -4.01401 23.8974 -0.31355 -3.9123 21.6302 3.1986 -14.6104 -1.42109e-014 -2.84217e-014 48.1992 47.325 4.16278 -28.8903 1.42109e-014 -2.84217e-014 -23.0679 -38.708 109.33 -28.8168 0 -7.10543e-015 -5.24537 -7.63103 -9.6873 10.0615 0 -1.42109e-014 19.296 11.3137 7.75161 -7.10543e-015 -36.0896 -2.84217e-014 -5.95429 9.39065 -23.4148 0 -47.1136 0 5.3897 -5.52029 24.172 0 -6.53997 15.0922 -5.51738e-033 -1.98785e-016 -1.59028e-015 -10.0615 0 0 -15.2876 -61.2298 -18.5873 0 -36.0896 0 153.708 62.9765 -134.753 0 -47.1136 0 1.97414 3.45988 -56.0741 1.42109e-014 -6.53997 15.0922 9.54166e-015 3.18055e-015 -0 
